<svg xmlns="http://www.w3.org/2000/svg" width="24" height="24" viewBox="0 0 24 24" fill="none" stroke="currentColor" stroke-width="2" stroke-linecap="round" stroke-linejoin="round" class="lucide lucide-gamepad-2"><line x1="6" x2="10" y1="11" y2="11"/><line x1="8" x2="8" y1="9" y2="13"/><line x1="15" x2="15.01" y1="12" y2="12"/><line x1="18" x2="18.01" y1="10" y2="10"/><path d="M17.32 5H6.68a4 4 0 0 0-3.978 3.59c-.006.052-.01.101-.017.152C2.604 9.416 2 14.456 2 16a3 3 0 0 0 3 3c1.11 0 2.08-.474 2.844-1.28l1.96-2.07A2 2 0 0 1 11.26 15h1.48a2 2 0 0 1 1.456.65l1.96 2.07C16.92 18.526 17.89 19 19 19a3 3 0 0 0 3-3c0-1.544-.604-6.584-.685-7.258-.007-.05-.011-.1-.017-.151A4 4 0 0 0 17.32 5z"/></svg>
