<svg xmlns="http://www.w3.org/2000/svg" width="24" height="24" viewBox="0 0 24 24" fill="none" stroke="currentColor" stroke-width="2" stroke-linecap="round" stroke-linejoin="round">
  <path d="M12 2c.6 0 1.1.4 1.2 1l.2 1.3c.3.1.7.3 1 .5l1.2-.5c.5-.2 1.1-.1 1.5.3l1.4 1.4c.4.4.5 1 .3 1.5l-.5 1.2c.2.3.4.7.5 1l1.3.2c.6 0 1 .6 1 1.2v2c0 .6-.4 1.1-1 1.2l-1.3.2c-.1.3-.3.7-.5 1l.5 1.2c.2.5.1 1.1-.3 1.5l-1.4 1.4c-.4.4-1 .5-1.5.3l-1.2-.5c-.3.2-.7.4-1 .5l-.2 1.3c-.1.6-.6 1-1.2 1h-2c-.6 0-1.1-.4-1.2-1l-.2-1.3c-.3-.1-.7-.3-1-.5l-1.2.5c-.5.2-1.1.1-1.5-.3l-1.4-1.4c-.4-.4-.5-1-.3-1.5l.5-1.2c-.2-.3-.4-.7-.5-1l-1.3-.2c-.6 0-1-.6-1-1.2v-2c0-.6.4-1.1 1-1.2l1.3-.2c.1-.3.3-.7.5-1l-.5-1.2c-.2-.5-.1-1.1.3-1.5l1.4-1.4c.4-.4 1-.5 1.5-.3l1.2.5c.3-.2.7-.4 1-.5l.2-1.3c.1-.6.6-1 1.2-1h2Z"/>
  <circle cx="11" cy="12" r="3"/>
</svg>